<svg width="70" height="50" viewBox="0 0 70 50" fill="none" xmlns="http://www.w3.org/2000/svg">
<path id="Vector" d="M55.685 10.7306C46.5728 17.2619 41.2767 29.1306 41.5625 32.5694C49.7656 44.4444 67.3954 44.4444 54.8362 44.4444C49.4987 44.4444 62.3438 52.6028 62.3438 44.4444C62.3438 36.8778 47.8683 16.3333 55.685 10.7306ZM17.7683 10.7306C5.83333 19.2852 2.99541 32.7306 3.28125 36.1694C21.1663 35.8889 29.4788 44.4444 16.9196 44.4444C11.5821 44.4444 22.8044 49.825 22.8044 41.6667C22.8044 34.1 9.95166 16.3333 17.7683 10.7306ZM67.0833 0C49.2683 3.35 37.9167 18.2889 37.9167 32.5694C37.9167 43.5972 46.0425 50 54.8362 50C62.4633 50 70 45.0083 70 36.1694C70 28.9444 64.4437 22.9556 57.1783 21.8667C57.8112 16.3 63.4929 8.225 69.9533 5.90556L67.0833 0ZM29.1667 0C11.3517 3.35 0 18.2889 0 32.5694C0 43.5972 8.12583 50 16.9196 50C24.5467 50 32.0833 45.0083 32.0833 36.1694C32.0833 28.9444 26.5271 22.9556 19.2617 21.8667C19.8946 16.3 25.5762 8.225 32.0367 5.90556L29.1667 0Z" fill="black" fill-opacity="0.1"/>
</svg>
