<svg width="31" height="31" viewBox="0 0 31 31" fill="none" xmlns="http://www.w3.org/2000/svg">
<path id="Linkedin" d="M3.69048 0C1.66107 0 0 1.66107 0 3.69048V27.3095C0 29.3389 1.66107 31 3.69048 31H27.3095C29.3389 31 31 29.3389 31 27.3095V3.69048C31 1.66107 29.3389 0 27.3095 0H3.69048ZM3.69048 1.47619H27.3095C28.541 1.47619 29.5238 2.45898 29.5238 3.69048V27.3095C29.5238 28.541 28.541 29.5238 27.3095 29.5238H3.69048C2.45898 29.5238 1.47619 28.541 1.47619 27.3095V3.69048C1.47619 2.45898 2.45898 1.47619 3.69048 1.47619ZM7.38095 5.17532C6.57257 5.17532 5.84514 5.41694 5.3065 5.87016C4.76786 6.32339 4.43722 7.00047 4.43722 7.72549C4.43722 9.10365 5.63262 10.178 7.15318 10.2843L7.15606 10.2858C7.22852 10.3105 7.30441 10.3236 7.38095 10.3247C9.05865 10.3247 10.3247 9.14949 10.3247 7.72549C10.3245 7.71251 10.3241 7.69953 10.3232 7.68657C10.2481 6.28402 8.99771 5.17532 7.38095 5.17532ZM7.38095 6.63421C8.40855 6.63421 8.81431 7.09312 8.85858 7.74423C8.84962 8.37623 8.45864 8.86579 7.38095 8.86579C6.35839 8.86579 5.89611 8.34212 5.89611 7.72549C5.89611 7.41718 6.00861 7.18484 6.24498 6.98596C6.48134 6.78707 6.86076 6.63421 7.38095 6.63421ZM5.16667 11.0714C4.97092 11.0714 4.78319 11.1492 4.64478 11.2876C4.50636 11.426 4.42859 11.6138 4.42857 11.8095V25.8333C4.42859 26.0291 4.50636 26.2168 4.64478 26.3552C4.78319 26.4936 4.97092 26.5714 5.16667 26.5714H9.59524C9.79099 26.5714 9.97871 26.4936 10.1171 26.3552C10.2555 26.2168 10.3333 26.0291 10.3333 25.8333V21.5042V11.8095C10.3333 11.6138 10.2555 11.426 10.1171 11.2876C9.97871 11.1492 9.79099 11.0714 9.59524 11.0714H5.16667ZM11.8095 11.0714C11.6138 11.0714 11.426 11.1492 11.2876 11.2876C11.1492 11.426 11.0714 11.6138 11.0714 11.8095V25.8333C11.0714 26.0291 11.1492 26.2168 11.2876 26.3552C11.426 26.4936 11.6138 26.5714 11.8095 26.5714H16.2381C16.4338 26.5714 16.6216 26.4936 16.76 26.3552C16.8984 26.2168 16.9762 26.0291 16.9762 25.8333V18.4524C16.9762 17.84 17.1433 17.2309 17.4375 16.832C17.7317 16.4332 18.1029 16.1939 18.8085 16.2064C19.536 16.2189 19.9212 16.4681 20.2126 16.8594C20.5039 17.2507 20.6667 17.8373 20.6667 18.4524V25.8333C20.6667 26.0291 20.7445 26.2168 20.8829 26.3552C21.0213 26.4936 21.209 26.5714 21.4048 26.5714H25.8333C26.0291 26.5714 26.2168 26.4936 26.3552 26.3552C26.4936 26.2168 26.5714 26.0291 26.5714 25.8333V17.9075C26.5714 15.7216 25.924 13.9901 24.8141 12.8186C23.7043 11.6472 22.1607 11.0714 20.5283 11.0714C18.9768 11.0714 17.7961 11.5917 16.9762 12.1223V11.8095C16.9762 11.6138 16.8984 11.426 16.76 11.2876C16.6216 11.1492 16.4338 11.0714 16.2381 11.0714H11.8095ZM5.90476 12.5476H8.85714V21.5042V25.0952H5.90476V12.5476ZM12.5476 12.5476H15.5V13.6995C15.5 13.8542 15.5487 14.0051 15.6392 14.1306C15.7296 14.2562 15.8573 14.3502 16.0041 14.3993C16.1508 14.4484 16.3093 14.4501 16.4571 14.4042C16.6049 14.3583 16.7346 14.2671 16.8277 14.1435C16.8277 14.1435 17.9868 12.5476 20.5283 12.5476C21.8224 12.5476 22.9321 12.9776 23.743 13.8335C24.5539 14.6894 25.0952 16.008 25.0952 17.9075V25.0952H22.1429V18.4524C22.1429 17.5913 21.9365 16.701 21.3976 15.9772C20.8586 15.2534 19.9521 14.7494 18.8344 14.7302C17.711 14.7102 16.7898 15.2247 16.2496 15.957C15.7094 16.6893 15.5 17.5886 15.5 18.4524V25.0952H12.5476V12.5476Z" fill="black"/>
</svg>
