<svg width="15" height="15" viewBox="0 0 15 15" fill="none" xmlns="http://www.w3.org/2000/svg">
<path d="M7.78509 0.842798L9.38209 5.57392L14.1518 5.70638L15 5.72994L14.3275 6.27309L10.5411 9.33151L11.896 14.1438L12.1369 14.9998L11.4371 14.4948L7.49903 11.6535L3.56452 14.4948L2.86497 15L3.10564 14.1438L4.4591 9.32899L0.67406 6.27436L0 5.73037L0.849841 5.70638L5.62236 5.57173L7.21649 0.842798L7.50061 0L7.78509 0.842798Z" fill="#FF8F00"/>
<path d="M7.78509 0.842798L9.38209 5.57392L14.1518 5.70638L15 5.72994L14.3275 6.27309L10.5411 9.33151L11.896 14.1438L12.1369 14.9998L11.4371 14.4948L7.5 11.6542V0.0017832L7.50061 0L7.78509 0.842798Z" fill="#E68100"/>
</svg>
